<svg xmlns="http://www.w3.org/2000/svg" width="14.931" height="19.234" viewBox="0 0 14.931 19.234">
  <g id="noun-delete-1310138" transform="translate(-184.808 -69.999)">
    <path id="Path_12" data-name="Path 12" d="M191.767,85.563a.633.633,0,1,0,1.265,0v-8.6a.633.633,0,1,0-1.265,0ZM197,87.3a.178.178,0,0,1-.171.161h-8.854a.181.181,0,0,1-.171-.161l-.464-11.138a.886.886,0,0,0-1.77.074l.464,11.138a1.951,1.951,0,0,0,1.941,1.859h8.854a1.949,1.949,0,0,0,1.941-1.859l.464-11.138a.886.886,0,0,0-1.77-.074Zm-7.888-1.719a.633.633,0,1,0,1.265-.037l-.253-8.6a.633.633,0,0,0-1.265.037Zm5.315-.037a.633.633,0,0,0,1.265.037l.253-8.6a.633.633,0,0,0-1.265-.037Zm4.429-12.888a.886.886,0,0,1,0,1.772h-13.16a.886.886,0,0,1,0-1.772h3.2l.251-1A2.246,2.246,0,0,1,191.26,70h2.027a2.246,2.246,0,0,1,2.116,1.654l.251,1Zm-5.025,0-.144-.574a.488.488,0,0,0-.4-.312H191.26a.489.489,0,0,0-.4.312l-.144.574Z" fill="#2f3e51" fill-rule="evenodd"/>
  </g>
</svg>
