<svg xmlns="http://www.w3.org/2000/svg" width="26.275" height="29.334" viewBox="0 0 26.275 29.334">
  <g id="noun-receipt-1581138" transform="translate(-161.281 -62.709)">
    <path id="Path_13" data-name="Path 13" d="M321.363,159.314a.841.841,0,0,1-.834.834H315a.834.834,0,1,1,0-1.668h5.533A.841.841,0,0,1,321.363,159.314Z" transform="translate(-142.535 -89.29)" fill="#2f3e51"/>
    <path id="Path_14" data-name="Path 14" d="M183.527,70.327v12.62a4.156,4.156,0,0,0-.985-.076H182.5a4.7,4.7,0,0,0-1.023.114V70.668a9.937,9.937,0,0,1,1.478-5.95H165.147l-.341.568c-1.023,1.629-1.478,2.312-1.478,5.382l.038,17.282,1.819,1.629,1.857-1.781a1.248,1.248,0,0,1,1.743.038l1.629,1.668,1.819-1.705a1.285,1.285,0,0,1,1.743.038l1.592,1.668,1.629-1.629.114-.114v.417a7.946,7.946,0,0,0,.076.947,5.3,5.3,0,0,0,.341,1.1l-1.4,1.4a1.055,1.055,0,0,1-.8.3,1.091,1.091,0,0,1-.8-.341l-1.705-1.781-1.895,1.781a1.122,1.122,0,0,1-1.554-.038l-1.705-1.743-1.895,1.819a1.2,1.2,0,0,1-.758.3,1.158,1.158,0,0,1-.758-.265l-3.146-2.8-.038-18.191c0-3.524.568-4.586,1.781-6.481.151-.227.3-.455.455-.72a1.708,1.708,0,0,1,1.4-.758h19.518a1.167,1.167,0,0,1,.72.227c1.213.493,2.539,2.2,2.388,7.428h-4.017Z" fill="#2f3e51"/>
    <path id="Path_15" data-name="Path 15" d="M259.231,211.394a.841.841,0,0,1-.834.834H248.354a.834.834,0,1,1,0-1.668H258.4A.841.841,0,0,1,259.231,211.394Z" transform="translate(-80.403 -137.846)" fill="#2f3e51"/>
    <path id="Path_16" data-name="Path 16" d="M423.735,382.034a4.127,4.127,0,0,0-.985-.114h-.038a3.194,3.194,0,0,0-1.023.151,3.868,3.868,0,0,0-2.767,3.259c0,.151-.038.3-.038.455a3.5,3.5,0,0,0,.151,1.1,3.9,3.9,0,0,0,2.312,2.5,4.159,4.159,0,0,0,1.364.265,3.882,3.882,0,0,0,3.866-3.866,3.761,3.761,0,0,0-2.843-3.752Zm1.251,2.842-2.615,2.615a.55.55,0,0,1-.758,0l-1.023-1.023a.536.536,0,0,1,.758-.758l.682.682,2.236-2.236a.51.51,0,1,1,.721.72Z" transform="translate(-240.169 -297.609)" fill="#2f3e51"/>
  </g>
</svg>
