<svg xmlns="http://www.w3.org/2000/svg" xmlns:xlink="http://www.w3.org/1999/xlink" width="51.356" height="52.461" viewBox="0 0 51.356 52.461">
  <defs>
    <linearGradient id="linear-gradient" x1="1.194" y1="0.421" x2="-0.041" y2="0.686" gradientUnits="objectBoundingBox">
      <stop offset="0" stop-color="#fdd43d"/>
      <stop offset="0.251" stop-color="#e9bc26"/>
      <stop offset="0.506" stop-color="#d49a00"/>
      <stop offset="0.807" stop-color="#a89100"/>
      <stop offset="1" stop-color="#ce8704"/>
    </linearGradient>
  </defs>
  <g id="noun-success-2316015" transform="translate(-84 -13.127)">
    <path id="Path_71" data-name="Path 71" d="M84,62.1l.68,1.53,24.4-10.118,4.251.51,1.53,4.676-2.041,1.956a2.451,2.451,0,0,0-.6,2.806l.85,2.126,14.114-5.527-.765-2.041a2.4,2.4,0,0,0-2.381-1.615h-2.806l-1.53-3.656,3.741-1.871a2.555,2.555,0,0,0,1.275-3.146L119.88,34.723a2.619,2.619,0,0,0-3.316-1.53.083.083,0,0,0-.085.085l-3.571,1.53-.51-1.275,1.956-2.3a10,10,0,0,0,2.466-5.442l2.466-2.976a4.465,4.465,0,0,0-.6-6.292,7.092,7.092,0,0,0-1.02-.68,4.226,4.226,0,0,0-2.891-.255l-.255-.765a2.459,2.459,0,0,0-3.231-1.53l-17.94,6.462a2.489,2.489,0,0,0-1.53,3.231v.085l.425,1.105a4.71,4.71,0,0,0-2.466,5.782,4.836,4.836,0,0,0,3.911,3.146l4,.425a11.079,11.079,0,0,0,5.527,2.126l2.806.255.51,1.275a2.534,2.534,0,0,0-1.19,1.7l-.6,2.891L84,50.2l.6,1.615,11.9-4.761,2.891,8.673Zm40.727-3.571.17.51-10.883,4.336-.255-.51a1.181,1.181,0,0,1,.17-.935l2.891-2.721,3.656-1.19h3.4A.854.854,0,0,1,124.727,58.53Zm-5.357-2.041-3.061,1.02L115.2,54.279a1.89,1.89,0,0,0,1.36-.255l1.445-.68Zm-2.3-21.937a.844.844,0,0,1,1.105.425l.68,1.786-4.166,1.36.51,1.615,4.166-1.36,1.02,2.721-4,1.36.51,1.615,4.081-1.36,1.02,2.721-3.911,1.275.51,1.615,4-1.36.425,1.105a.75.75,0,0,1-.425,1.02l-6.717,3.316a1.078,1.078,0,0,1-.51.085l-5.782-.68-3.146-9.438.6-3.146a.9.9,0,0,1,.51-.6Zm-.085-17.175a2.817,2.817,0,0,1,1.445,3.656,2.983,2.983,0,0,1-.425.68l-1.02,1.275a12.72,12.72,0,0,0-.51-2.466l-1.105-3.316A3.4,3.4,0,0,1,116.99,17.378ZM91.482,29.536a2.928,2.928,0,0,1,1.445-3.656l1.19,2.891a12.308,12.308,0,0,0,1.7,2.891l-1.786-.17A2.843,2.843,0,0,1,91.482,29.536Zm12.074,4.506a9.292,9.292,0,0,1-7.822-5.867l-2.211-5.612a.844.844,0,0,1,.425-1.105L111.887,15a.939.939,0,0,1,.68,0,.871.871,0,0,1,.425.51l1.871,5.612a9.347,9.347,0,0,1-1.786,9.013l-2.636,3.061.765,2.041-3.061,1.275-.85-2.126ZM98.114,46.371l1.956-.765,2.126,6.462,1.615-.51L101.6,44.926l3.4-1.36,2.891,8.588L101,55.044Z" transform="translate(0 0)" fill="url(#linear-gradient)"/>
    <path id="Path_72" data-name="Path 72" d="M476.751,63.553v.85h1.7v-.85A4.21,4.21,0,0,1,482.7,59.3V57.6a4.21,4.21,0,0,1-4.251-4.251V52.5h-1.7v.85A4.21,4.21,0,0,1,472.5,57.6v1.7A4.21,4.21,0,0,1,476.751,63.553Zm.85-7.142a5.862,5.862,0,0,0,2.041,2.041,5.862,5.862,0,0,0-2.041,2.041,5.862,5.862,0,0,0-2.041-2.041A5.862,5.862,0,0,0,477.6,56.411Z" transform="translate(-350.749 -35.547)" fill="url(#linear-gradient)"/>
    <path id="Path_73" data-name="Path 73" d="M91.751,238.553v.85h1.7v-.85A4.21,4.21,0,0,1,97.7,234.3v-1.7a4.21,4.21,0,0,1-4.251-4.251v-.85h-1.7v.85A4.21,4.21,0,0,1,87.5,232.6v1.7A4.21,4.21,0,0,1,91.751,238.553Zm.85-7.142a5.862,5.862,0,0,0,2.041,2.041,5.862,5.862,0,0,0-2.041,2.041,5.862,5.862,0,0,0-2.041-2.041A5.862,5.862,0,0,0,92.6,231.411Z" transform="translate(-3.16 -193.542)" fill="url(#linear-gradient)"/>
    <path id="Path_74" data-name="Path 74" d="M513.452,228.35v-.85h-1.7v.85A4.21,4.21,0,0,1,507.5,232.6v1.7a4.21,4.21,0,0,1,4.251,4.251v.85h1.7v-.85A4.21,4.21,0,0,1,517.7,234.3v-1.7A4.21,4.21,0,0,1,513.452,228.35Zm-.85,7.142a5.862,5.862,0,0,0-2.041-2.041,5.862,5.862,0,0,0,2.041-2.041,5.863,5.863,0,0,0,2.041,2.041A5.863,5.863,0,0,0,512.6,235.492Z" transform="translate(-382.347 -193.542)" fill="url(#linear-gradient)"/>
    <path id="Path_75" data-name="Path 75" d="M342.3,67.763l1.19,1.19c4.676-4.676.34-11.818.085-12.074l-1.445.935c.085,0,3.911,6.207.17,9.949Z" transform="translate(-233.047 -39.501)" fill="url(#linear-gradient)"/>
  </g>
</svg>
