<svg xmlns="http://www.w3.org/2000/svg" width="21.049" height="18.304" viewBox="0 0 21.049 18.304">
  <g id="noun-cart-1570216" transform="translate(-92.399 -56)">
    <path id="Path_6" data-name="Path 6" d="M93.085,56a.686.686,0,1,0,0,1.373h2.738c1.136,2.814,2.255,5.632,3.382,8.451l-1.037,2.5a.686.686,0,0,0,.636.951h11.44a.686.686,0,1,0,0-1.373H99.835l.593-1.416,11.018-.879a.706.706,0,0,0,.615-.529l1.373-5.949a.718.718,0,0,0-.672-.837H97.668l-.744-1.859A.7.7,0,0,0,96.289,56Zm5.134,3.661H111.9l-1.065,4.619-10.431.829Zm2.874,10.067a2.288,2.288,0,1,0,2.288,2.288A2.3,2.3,0,0,0,101.093,69.728Zm6.864,0a2.288,2.288,0,1,0,2.288,2.288A2.3,2.3,0,0,0,107.957,69.728ZM101.093,71.1a.915.915,0,1,1-.915.915A.9.9,0,0,1,101.093,71.1Zm6.864,0a.915.915,0,1,1-.915.915A.9.9,0,0,1,107.957,71.1Z" transform="translate(0)" fill="#fff"/>
  </g>
</svg>
