<svg xmlns="http://www.w3.org/2000/svg" width="17.92" height="17.92" viewBox="0 0 17.92 17.92">
  <g id="noun-category-2351449" transform="translate(-157.5 -87.5)">
    <path id="Path_7" data-name="Path 7" d="M163.2,87.5h-3.258a2.443,2.443,0,0,0-2.444,2.444V93.2a2.443,2.443,0,0,0,2.444,2.444H163.2a2.443,2.443,0,0,0,2.444-2.444V89.944A2.443,2.443,0,0,0,163.2,87.5Zm.815,5.7a.814.814,0,0,1-.815.815h-3.258a.814.814,0,0,1-.815-.815V89.944a.814.814,0,0,1,.815-.815H163.2a.814.814,0,0,1,.815.815Z" fill="#fff"/>
    <path id="Path_8" data-name="Path 8" d="M163.2,297.5h-3.258a2.443,2.443,0,0,0-2.444,2.444V303.2a2.443,2.443,0,0,0,2.444,2.444H163.2a2.443,2.443,0,0,0,2.444-2.444v-3.258A2.443,2.443,0,0,0,163.2,297.5Zm.815,5.7a.814.814,0,0,1-.815.815h-3.258a.814.814,0,0,1-.815-.815v-3.258a.814.814,0,0,1,.815-.815H163.2a.814.814,0,0,1,.815.815Z" transform="translate(0 -200.225)" fill="#fff"/>
    <path id="Path_9" data-name="Path 9" d="M373.2,297.5h-3.258a2.443,2.443,0,0,0-2.444,2.444V303.2a2.443,2.443,0,0,0,2.444,2.444H373.2a2.443,2.443,0,0,0,2.444-2.444v-3.258A2.443,2.443,0,0,0,373.2,297.5Zm.815,5.7a.814.814,0,0,1-.815.815h-3.258a.814.814,0,0,1-.815-.815v-3.258a.814.814,0,0,1,.815-.815H373.2a.814.814,0,0,1,.815.815Z" transform="translate(-200.225 -200.225)" fill="#fff"/>
    <path id="Path_10" data-name="Path 10" d="M373.2,87.5h-3.258a2.443,2.443,0,0,0-2.444,2.444V93.2a2.443,2.443,0,0,0,2.444,2.444H373.2a2.443,2.443,0,0,0,2.444-2.444V89.944A2.443,2.443,0,0,0,373.2,87.5Zm.815,5.7a.814.814,0,0,1-.815.815h-3.258a.814.814,0,0,1-.815-.815V89.944a.814.814,0,0,1,.815-.815H373.2a.814.814,0,0,1,.815.815Z" transform="translate(-200.225)" fill="#fff"/>
  </g>
</svg>
