<svg xmlns="http://www.w3.org/2000/svg" width="21.943" height="21.938" viewBox="0 0 21.943 21.938">
  <path id="Icon_awesome-instagram" data-name="Icon awesome-instagram" d="M10.969,7.582a5.625,5.625,0,1,0,5.625,5.625A5.616,5.616,0,0,0,10.969,7.582Zm0,9.282a3.657,3.657,0,1,1,3.657-3.657,3.663,3.663,0,0,1-3.657,3.657Zm7.167-9.512A1.312,1.312,0,1,1,16.824,6.04,1.309,1.309,0,0,1,18.136,7.352Zm3.725,1.332a6.493,6.493,0,0,0-1.772-4.6,6.535,6.535,0,0,0-4.6-1.772c-1.811-.1-7.24-.1-9.051,0a6.526,6.526,0,0,0-4.6,1.767,6.514,6.514,0,0,0-1.772,4.6c-.1,1.811-.1,7.24,0,9.051a6.493,6.493,0,0,0,1.772,4.6,6.544,6.544,0,0,0,4.6,1.772c1.811.1,7.24.1,9.051,0a6.492,6.492,0,0,0,4.6-1.772,6.535,6.535,0,0,0,1.772-4.6c.1-1.811.1-7.235,0-9.047Zm-2.34,10.99a3.7,3.7,0,0,1-2.085,2.085c-1.444.573-4.871.441-6.467.441s-5.028.127-6.467-.441a3.7,3.7,0,0,1-2.085-2.085c-.573-1.444-.441-4.871-.441-6.467s-.127-5.028.441-6.467A3.7,3.7,0,0,1,4.5,4.655c1.444-.573,4.871-.441,6.467-.441s5.028-.127,6.467.441A3.7,3.7,0,0,1,19.521,6.74c.573,1.444.441,4.871.441,6.467S20.094,18.234,19.521,19.674Z" transform="translate(0.005 -2.238)" fill="#303285"/>
</svg>
