<svg xmlns="http://www.w3.org/2000/svg" width="18.641" height="18.641" viewBox="0 0 18.641 18.641">
  <path id="Icon_awesome-phone" data-name="Icon awesome-phone" d="M17.963.9,14.177.021a.879.879,0,0,0-1,.506L11.428,4.605a.872.872,0,0,0,.251,1.019L13.885,7.43a13.493,13.493,0,0,1-6.451,6.451L5.628,11.675a.873.873,0,0,0-1.019-.251L.531,13.172a.884.884,0,0,0-.51,1L.9,17.963a.873.873,0,0,0,.852.677A16.891,16.891,0,0,0,18.64,1.747.873.873,0,0,0,17.963.9Z" transform="translate(0.001 0.001)" fill="#05185a"/>
</svg>
