<svg xmlns="http://www.w3.org/2000/svg" width="18.452" height="25.5" viewBox="0 0 18.452 25.5">
  <g id="noun-building-106266" transform="translate(-167.65 -28)">
    <path id="Path_127" data-name="Path 127" d="M354.3,143.441v14.721l9.008-5.2V138.24Z" transform="translate(-177.206 -104.662)" fill="#0084d1"/>
    <path id="Path_128" data-name="Path 128" d="M171.96,33.2l9.008,5.2,9.008-5.2L180.968,28Z" transform="translate(-4.092)" fill="#0084d1"/>
    <path id="Path_129" data-name="Path 129" d="M479.94,339.026l1.76-1.016v2.807l-1.76,1.017Z" transform="translate(-296.49 -294.325)" fill="#0084d1"/>
    <path id="Path_130" data-name="Path 130" d="M479.94,263.15l1.76-1.016v2.807l-1.76,1.017Z" transform="translate(-296.49 -222.288)" fill="#0084d1"/>
    <path id="Path_131" data-name="Path 131" d="M479.94,187.336l1.76-1.016v2.806l-1.76,1.017Z" transform="translate(-296.49 -150.31)" fill="#0084d1"/>
    <path id="Path_132" data-name="Path 132" d="M425.41,370.477l1.764-1.018v2.807l-1.764,1.018Z" transform="translate(-244.719 -324.183)" fill="#0084d1"/>
    <path id="Path_133" data-name="Path 133" d="M425.41,294.6l1.764-1.019v2.808L425.41,297.4Z" transform="translate(-244.719 -252.14)" fill="#0084d1"/>
    <path id="Path_134" data-name="Path 134" d="M425.41,218.783l1.764-1.018v2.805l-1.764,1.019Z" transform="translate(-244.719 -180.164)" fill="#0084d1"/>
    <path id="Path_135" data-name="Path 135" d="M370.79,402l1.765-1.019v2.807L370.79,404.8Z" transform="translate(-192.862 -354.108)" fill="#0084d1"/>
    <path id="Path_136" data-name="Path 136" d="M370.79,326.129l1.765-1.018v2.807l-1.765,1.019Z" transform="translate(-192.862 -282.079)" fill="#0084d1"/>
    <path id="Path_137" data-name="Path 137" d="M370.79,250.308l1.765-1.019v2.805l-1.765,1.019Z" transform="translate(-192.862 -210.093)" fill="#0084d1"/>
    <path id="Path_138" data-name="Path 138" d="M167.65,138.24v14.721l3.646,2.107v-5.13l1.764,1.018v5.129l3.6,2.077V143.441Zm2.652,13.931-1.76-1.017v-2.807l1.76,1.018Zm0-3.838-1.76-1.017v-2.807l1.76,1.016Zm0-3.838-1.76-1.016v-2.806l1.76,1.016Zm2.759,5.43-1.764-1.018V146.1l1.764,1.018Zm0-3.838-1.764-1.018v-2.806l1.764,1.018Zm2.764,9.272-1.765-1.021v-2.805l1.765,1.019Zm0-3.839-1.765-1.019v-2.807l1.765,1.019Zm0-3.838-1.765-1.019v-2.806l1.765,1.019Z" transform="translate(0 -104.662)" fill="#0084d1"/>
    <path id="Path_139" data-name="Path 139" d="M249.221,383.547l-.893-.516v4.19l.893-.516Z" transform="translate(-76.596 -337.068)" fill="#0084d1"/>
  </g>
</svg>
