<?xml version="1.0" encoding="utf-8"?>
<!-- Generator: Adobe Illustrator 23.0.3, SVG Export Plug-In . SVG Version: 6.00 Build 0)  -->
<svg version="1.1" id="Layer_1" xmlns="http://www.w3.org/2000/svg" xmlns:xlink="http://www.w3.org/1999/xlink" x="0px" y="0px"
	 viewBox="0 0 1920 1080" style="enable-background:new 0 0 1920 1080;" xml:space="preserve">
<style type="text/css">
	.st0{display:none;fill:#FFFFFF;}
</style>
<g>
	<path class="st0" d="M822,604c0-42,0-84,0-126c93,0,186,0,279,0c0,42,0,84,0,126C1008,604,915,604,822,604z M1078.5,581.5
		c4.7-2.9,9.3-5.8,14-8.8c-4-5-8.7-6.3-12.5-4.1c-4.3,2.5-6,7.9-3.9,12.3c2.3,4.8,6.8,6.6,11.8,4.9c4.6-1.6,6.2-4.3,5.2-8.6
		c-7.1,8.3-8.9,8.8-14.5,4.1L1078.5,581.5z M827.5,496.1c0,17.9,0,35.2,0,52.8c8.2,0,16,0.3,23.8-0.1c6.2-0.3,11.8-2.8,16.2-7.5
		c7.1-7.7,8.9-21.4,4.4-31.5c-3.6-8.1-10.1-12.7-18.6-13.5C844.9,495.5,836.3,496.1,827.5,496.1z M945.1,528.4
		c2.1-1.6,4-2.9,5.7-4.5c5.2-5,5.4-11.3,3.7-17.5c-1.5-5.7-5.9-9.7-11.7-10.1c-9.4-0.6-18.9-0.2-28.4-0.2c0,17.8,0,35,0,52.5
		c5.2,0,10.1,0,15.7,0c0-4.9,0-9.5,0-14.2c3.5,3.8,6,7.8,8.7,11.7c0.8,1.1,2,2.6,3.1,2.6c5.5,0.3,11.1,0.1,17.4,0.1
		C954.2,541.5,949.7,535.1,945.1,528.4z M959.1,496.3c0,10.1-0.1,19.7,0,29.3c0.1,15.7,6,23.2,20.2,25c12.2,1.5,24.1-2.7,26-16.1
		c1.8-12.3,0.4-25.1,0.4-38c-4.7,0-9.5,0-14.7,0c0,9.4,0.1,18.5,0,27.6c0,2.6-0.4,5.3-1,7.8c-0.8,3.4-3.2,5.3-6.8,5.3
		c-3.6,0-6.5-1.3-7.5-5.1c-0.5-1.9-0.8-3.9-0.8-5.8c-0.1-9.9,0-19.9,0-29.9C969.4,496.3,964.7,496.3,959.1,496.3z M1039.7,548.9
		c2.8,0,5-0.1,7.1,0c5.5,0.2,10,0.8,12.2-6.9c1.4-5.1,8.5-1.2,13-2c1.5-0.3,4.8,1,4.8,1.8c0.6,7.7,5.8,7.5,11.3,7.1
		c2.3-0.2,4.6,0,7.4,0c-0.5-1.6-0.8-3-1.3-4.3c-4-11.4-8.1-22.8-12.2-34.2c-1.7-4.6-2.2-10.9-5.5-13.3c-3.4-2.4-9.6-0.7-14.5-1
		c-3.1-0.2-4.2,1-5.1,3.8c-4,11.6-8.4,23.1-12.5,34.7C1042.7,539.1,1041.3,543.8,1039.7,548.9z M878.5,496.3c0,17.7,0,35.1,0,52.2
		c11,0,21.6,0,32.4,0c0-3.2-0.2-6,0-8.8c0.3-3.6-1.2-4.7-4.6-4.6c-4.1,0.2-8.2,0-12,0c0-2.9,0-5,0-7.5c5,0,9.6,0,14.2,0
		c0-4.1,0-7.9,0-12.1c-5,0-9.6,0-14.4,0c0-2.5,0-4.4,0-6.8c5.6,0,11,0,16.4,0c0-4.5,0-8.4,0-12.5
		C899.8,496.3,889.4,496.3,878.5,496.3z M1012.5,496.2c0,17.8,0,35.1,0,52.3c5.3,0,10.2,0,15.5,0c0-6.6,0-12.9,0-19.7
		c5.1,0,9.8,0,14.6,0c0-4.5,0-8.4,0-12.9c-5,0-9.7,0-14.4,0c0-2.6,0-4.7,0-7.3c5.4,0,10.4,0,15.3,0c0-4.5,0-8.4,0-12.4
		C1033.1,496.2,1023,496.2,1012.5,496.2z M976.3,572.9c0-4.4,0.9-8-0.3-10.5c-0.9-1.8-4.7-3.1-7.2-3c-3.6,0.1-7.1,2.4-7.4,6.2
		c-0.5,6.7-0.2,13.5-0.2,20.4c3.2,0,5.7,0.2,8.1-0.1c2.2-0.2,4.8-0.3,6.4-1.5C980.3,581,979.9,577.1,976.3,572.9z M867.2,585.3
		c3,0.5,5.6,1.5,8,1.1c5.8-0.9,8.4-4.9,7.8-10.6c-0.5-4.5-4.9-8.3-9.5-8.3c-4.9,0-9,4.3-9.2,9.8c-0.2,4.8-0.1,9.6,0,14.5
		c0,0.9,0.6,1.8,1,2.7c0.4,0,0.9-0.1,1.3-0.1C866.7,591.3,866.9,588.3,867.2,585.3z M1052.6,595.1c1.2-0.9,2-1.2,2-1.5
		c-0.3-6.9-0.2-13.8-1.3-20.6c-0.7-4.4-6.1-6.2-10.9-4.8c-4.2,1.2-7.4,6-6.7,10.1c1.3,7.7,7.7,10.2,16.3,6.3
		C1052.1,587.8,1052.3,591.1,1052.6,595.1z M939.9,585.3c0-2.6,0.2-5.6,0-8.5c-0.4-6.2-5-9.8-11-8.8c-5.4,0.9-8.8,6.2-7.8,11.7
		c0.8,4.1,7.2,8.4,12.5,6.2C935.3,585.3,937.5,585.5,939.9,585.3z M851.4,567.5c-4.7,0-9.4,4.9-9.3,9.7c0.1,4.8,4.8,9.8,9.4,9.7
		c4.5-0.1,9.4-5.2,9.4-9.8C860.9,572.2,856.2,567.5,851.4,567.5z M998.9,577.4c0.1-5.5-3.8-9.7-9-9.8c-4.8-0.1-9.7,4.4-9.8,9.3
		c-0.1,4.5,4.8,9.8,9.3,9.9C994.5,587,998.8,582.7,998.9,577.4z M909.2,567.5c-5.5,0-9.1,3.7-9.1,9.5c0,5.6,3.8,9.7,9,9.8
		c4.6,0.1,9.6-5,9.6-9.7C918.7,572.4,913.9,567.6,909.2,567.5z M1070.1,567.2c0,4.7,0.4,8.4-0.2,11.9c-0.3,1.8-2,4.2-3.6,4.8
		c-2.7,1-5.3-0.3-5.9-3.6c-0.4-2.1-0.4-4.2-0.5-6.4c-0.1-1.9-0.2-3.8-0.4-5.7c-0.5,0-0.9,0.1-1.4,0.1c0,4.1-0.4,8.2,0.2,12.2
		c0.3,1.9,2.2,4,3.9,5.1c3.5,2.3,6.7,0.6,8.9-2.3C1073.8,580.2,1073.6,570.6,1070.1,567.2z M1004.9,568.3c-4.6,4.2-3,14.5,1.4,17.3
		c3.3,2,8.6,1.2,9.6-2.6c1.3-4.6,0.7-9.8,1-14.7c-0.6,0-1.2,0-1.9,0c0,3.6,0.2,7.3-0.1,10.9c-0.2,3.1-1.8,5.1-5.5,4.9
		c-3.4-0.2-4.6-2-4.6-5.1C1004.9,575.4,1004.9,571.9,1004.9,568.3z M944.7,563c-0.5,0.1-1,0.3-1.6,0.4c0,5.5-0.1,10.9,0,16.4
		c0.1,5.8,2.8,7.4,9.4,4.4c-8.1,1.5-6.6-3.6-6.7-7.6c0-2.1,0-4.2,0-6.3c2.3-0.4,4.1-0.6,5.9-0.9c0-0.3,0-0.6-0.1-0.9
		c-1.8-0.3-3.7-0.5-5.1-0.7C945.8,566,945.3,564.5,944.7,563z M835.1,585.6c0.6,0,1.1,0,1.7,0c0-7.8,0-15.6,0-23.3
		c3.1-0.4,5.5-0.7,7.8-0.9c-0.1-0.2-0.1-0.5-0.2-0.7c-5.7,0-11.3,0-17,0c0,0.3,0,0.6,0,1c2.4,0.2,4.8,0.3,7.6,0.5
		C835.1,570.1,835.1,577.9,835.1,585.6z M896.8,568.9c-4.8-1.4-8.9-0.7-10.9,4c-1.6,3.6-1.5,7.5,1.4,10.6c2.7,2.9,6,2.8,9.5,1.4
		c-4.7-0.8-9.4-2.1-9.6-7.6C886.8,571.4,891.9,570,896.8,568.9z M1023.4,567.8c-0.4-1.7-0.7-3.1-1.1-4.6c-0.4,0-0.8,0.1-1.2,0.1
		c0,5.5,0,11.1,0,16.6c0,5.7,2.1,7,7.5,4.9c-6.2-1.8-7.4-5.3-5-14.7c1.7-0.2,3.4-0.4,5.1-0.7c0-0.3,0-0.6,0-1
		C1027,568.3,1025.4,568.1,1023.4,567.8z M1032.2,568.2c-0.5,0-0.9,0-1.4,0c0,5.9,0,11.7,0,17.6c0.5,0,0.9,0,1.4,0
		C1032.2,579.9,1032.2,574.1,1032.2,568.2z"/>
	<path d="M827.5,496.1c8.9,0,17.4-0.6,25.8,0.2c8.5,0.7,15,5.3,18.6,13.5c4.5,10.1,2.7,23.8-4.4,31.5c-4.4,4.7-9.9,7.2-16.2,7.5
		c-7.8,0.4-15.6,0.1-23.8,0.1C827.5,531.3,827.5,514,827.5,496.1z M843.1,534.8c6,1.1,11-0.2,13.6-5.4c2.3-4.8,2.8-10.2-0.7-15
		c-3.2-4.4-7.7-5.4-12.9-5.2C843.1,517.9,843.1,526.2,843.1,534.8z"/>
	<path d="M945.1,528.4c4.6,6.7,9.1,13.2,14.2,20.5c-6.3,0-11.9,0.1-17.4-0.1c-1.1-0.1-2.3-1.5-3.1-2.6c-2.7-3.9-5.2-7.9-8.7-11.7
		c0,4.7,0,9.3,0,14.2c-5.6,0-10.5,0-15.7,0c0-17.5,0-34.7,0-52.5c9.5,0,19-0.5,28.4,0.2c5.8,0.4,10.2,4.4,11.7,10.1
		c1.7,6.2,1.5,12.6-3.7,17.5C949.1,525.5,947.2,526.8,945.1,528.4z M930.1,520.6c3.7-1.8,6.7-2.7,8.8-4.6c0.9-0.8,0.7-4.8-0.3-5.5
		c-2.2-1.7-5.2-2.2-8.5-3.4C930.1,511.8,930.1,515.1,930.1,520.6z"/>
	<path d="M959.1,496.3c5.6,0,10.3,0,15.8,0c0,10.1,0,20,0,29.9c0,1.9,0.3,3.9,0.8,5.8c1,3.8,3.9,5.1,7.5,5.1c3.6,0,6-1.9,6.8-5.3
		c0.6-2.6,1-5.2,1-7.8c0.1-9.1,0-18.2,0-27.6c5.2,0,10,0,14.7,0c0,12.9,1.4,25.7-0.4,38c-2,13.5-13.8,17.6-26,16.1
		c-14.2-1.7-20.1-9.2-20.2-25C959,515.9,959.1,506.3,959.1,496.3z"/>
	<path d="M1039.7,548.9c1.7-5.1,3.1-9.8,4.7-14.4c4.1-11.6,8.5-23.1,12.5-34.7c1-2.8,2.1-4.1,5.1-3.8c4.9,0.4,11.1-1.3,14.5,1
		c3.3,2.3,3.8,8.7,5.5,13.3c4.1,11.4,8.1,22.8,12.2,34.2c0.5,1.3,0.8,2.7,1.3,4.3c-2.8,0-5.1-0.1-7.4,0c-5.5,0.4-10.7,0.6-11.3-7.1
		c-0.1-0.8-3.3-2.1-4.8-1.8c-4.5,0.7-11.5-3.1-13,2c-2.2,7.7-6.7,7.1-12.2,6.9C1044.6,548.8,1042.5,548.9,1039.7,548.9z
		 M1062.6,526.8c3.6,0,6.7,0,10.2,0c-1.6-5.2-3.2-10.3-5.2-16.6C1065.7,516.4,1064.2,521.4,1062.6,526.8z"/>
	<path d="M878.5,496.3c10.9,0,21.3,0,32.1,0c0,4.1,0,8,0,12.5c-5.4,0-10.8,0-16.4,0c0,2.5,0,4.4,0,6.8c4.8,0,9.4,0,14.4,0
		c0,4.3,0,8,0,12.1c-4.7,0-9.3,0-14.2,0c0,2.5,0,4.5,0,7.5c3.9,0,8,0.2,12,0c3.4-0.2,4.9,1,4.6,4.6c-0.2,2.8,0,5.6,0,8.8
		c-10.8,0-21.4,0-32.4,0C878.5,531.4,878.5,514,878.5,496.3z"/>
	<path d="M1012.5,496.2c10.5,0,20.6,0,31.1,0c0,4,0,7.9,0,12.4c-4.9,0-9.9,0-15.3,0c0,2.6,0,4.7,0,7.3c4.7,0,9.4,0,14.4,0
		c0,4.5,0,8.4,0,12.9c-4.8,0-9.5,0-14.6,0c0,6.8,0,13.1,0,19.7c-5.3,0-10.2,0-15.5,0C1012.5,531.4,1012.5,514,1012.5,496.2z"/>
	<path d="M976.3,572.9c3.6,4.2,3.9,8.1-0.5,11.5c-1.6,1.2-4.2,1.3-6.4,1.5c-2.5,0.2-5,0.1-8.1,0.1c0-6.9-0.4-13.7,0.2-20.4
		c0.3-3.8,3.8-6.1,7.4-6.2c2.5-0.1,6.3,1.2,7.2,3C977.2,564.9,976.3,568.5,976.3,572.9z M964.2,573.2c0,3.8,0,7.2,0,10.5
		c8.5,1,11.9-0.5,11.9-5.2C976.1,574.3,972.7,572.7,964.2,573.2z M962.7,571.1c5.3-0.3,9.4,1.5,11.6-2.9c0.6-1.2,0.2-4.4-0.5-4.7
		c-2.2-0.9-5.7-1.9-7.1-0.8C964.7,564.2,964.2,567.6,962.7,571.1z"/>
	<path d="M867.2,585.3c-0.2,3-0.5,6-0.7,9c-0.4,0-0.9,0.1-1.3,0.1c-0.3-0.9-1-1.8-1-2.7c-0.1-4.8-0.2-9.6,0-14.5
		c0.2-5.5,4.4-9.8,9.2-9.8c4.7,0,9.1,3.8,9.5,8.3c0.6,5.7-2,9.7-7.8,10.6C872.7,586.8,870.1,585.8,867.2,585.3z M866.9,577.7
		c0,4.6,1.8,6.4,6.6,6.4c4.1,0,7.5-3,7.6-6.8c0.1-3.7-3.5-7.2-7.3-7.4C869.3,569.8,866.9,572.4,866.9,577.7z"/>
	<path d="M1052.6,595.1c-0.3-3.9-0.5-7.2-0.7-10.5c-8.5,3.9-15,1.4-16.3-6.3c-0.7-4.1,2.6-8.9,6.7-10.1c4.9-1.3,10.2,0.5,10.9,4.8
		c1.1,6.8,1,13.7,1.3,20.6C1054.5,593.8,1053.8,594.1,1052.6,595.1z M1052.1,578.1c0-5.4-2.4-8.2-7.1-8.2c-3.8,0-7.1,3.4-7.1,7.3
		c0,4.4,2.5,6.9,7.2,6.9C1049.9,584.1,1052.1,582.2,1052.1,578.1z"/>
	<path d="M1078.6,581.4c5.6,4.7,7.4,4.2,14.5-4.1c1,4.3-0.7,7-5.2,8.6c-4.9,1.7-9.5-0.1-11.8-4.9c-2.1-4.4-0.4-9.8,3.9-12.3
		c3.8-2.2,8.6-0.9,12.5,4.1C1087.8,575.7,1083.1,578.6,1078.6,581.4c3.3-3.3,6.8-6.6,10.2-9.9c-0.1-0.5-0.1-0.9-0.2-1.4
		c-2.8,0.4-6.1,0-8.3,1.4C1076.6,573.8,1077.6,577.8,1078.6,581.4z"/>
	<path d="M939.9,585.3c-2.4,0.2-4.6,0-6.3,0.7c-5.3,2.1-11.7-2.2-12.5-6.2c-1-5.5,2.4-10.8,7.8-11.7c6-1,10.6,2.6,11,8.8
		C940,579.7,939.9,582.7,939.9,585.3z M937.1,578c0-5.4-2.1-8-6.5-8.1c-4.1-0.1-7.8,3.6-7.7,7.5c0.1,3.2,3.8,6.6,7.3,6.7
		C935.1,584.2,937.1,582.4,937.1,578z"/>
	<path d="M851.4,567.5c4.7,0,9.5,4.8,9.5,9.6c0,4.6-4.9,9.7-9.4,9.8c-4.6,0.1-9.4-4.9-9.4-9.7C842,572.3,846.7,567.4,851.4,567.5z
		 M858.1,577.3c0-4.8-2.3-7.4-6.6-7.4c-4.1,0-6.5,2.5-6.6,6.9c-0.1,4.9,2.1,7.3,6.6,7.3C855.8,584.1,858.1,581.8,858.1,577.3z"/>
	<path d="M998.9,577.4c-0.1,5.3-4.4,9.6-9.4,9.4c-4.5-0.2-9.5-5.5-9.3-9.9c0.2-4.9,5-9.5,9.8-9.3C995.1,567.7,999,571.9,998.9,577.4
		z M989.8,569.9c-4.3,0-6.9,2.7-6.9,7.2c0,4.5,2.5,7,7,7c3.5,0,6.9-3.3,7-6.9C997.1,573.5,993.5,569.9,989.8,569.9z"/>
	<path d="M909.2,567.5c4.7,0,9.6,4.9,9.5,9.6c0,4.7-5,9.7-9.6,9.7c-5.2-0.1-9-4.2-9-9.8C900.1,571.3,903.7,567.5,909.2,567.5z
		 M908.9,584.1c4.4,0.1,7.1-2.5,7.2-6.9c0.1-4-3-7.2-6.9-7.3c-3.6,0-7.3,3.7-7.2,7.3C902,580.5,905.5,584.1,908.9,584.1z"/>
	<path d="M1070.1,567.2c3.5,3.5,3.7,13,1.1,16.3c-2.3,2.9-5.4,4.6-8.9,2.3c-1.7-1.1-3.6-3.2-3.9-5.1c-0.6-4-0.2-8.1-0.2-12.2
		c0.5,0,0.9-0.1,1.4-0.1c0.1,1.9,0.2,3.8,0.4,5.7c0.2,2.1,0.1,4.3,0.5,6.4c0.6,3.3,3.2,4.5,5.9,3.6c1.6-0.6,3.3-3,3.6-4.8
		C1070.5,575.6,1070.1,571.9,1070.1,567.2z"/>
	<path d="M1004.9,568.3c0,3.6,0,7.1,0,10.7c0,3.1,1.3,4.9,4.6,5.1c3.6,0.2,5.2-1.8,5.5-4.9c0.3-3.6,0.1-7.2,0.1-10.9
		c0.6,0,1.2,0,1.9,0c-0.3,4.9,0.3,10-1,14.7c-1,3.8-6.3,4.6-9.6,2.6C1001.9,582.8,1000.3,572.5,1004.9,568.3z"/>
	<path d="M944.7,563c0.6,1.5,1.2,2.9,1.9,4.8c1.4,0.2,3.3,0.5,5.1,0.7c0,0.3,0,0.6,0.1,0.9c-1.8,0.3-3.6,0.6-5.9,0.9
		c0,2.1,0,4.2,0,6.3c0.1,4-1.4,9.2,6.7,7.6c-6.6,2.9-9.3,1.4-9.4-4.4c-0.1-5.4,0-10.9,0-16.4C943.6,563.3,944.1,563.2,944.7,563z"/>
	<path d="M835.1,585.6c0-7.7,0-15.5,0-23.5c-2.9-0.2-5.2-0.4-7.6-0.5c0-0.3,0-0.6,0-1c5.7,0,11.3,0,17,0c0.1,0.2,0.1,0.5,0.2,0.7
		c-2.4,0.3-4.8,0.6-7.8,0.9c0,7.7,0,15.5,0,23.3C836.2,585.6,835.7,585.6,835.1,585.6z"/>
	<path d="M896.8,568.9c-4.9,1.1-9.9,2.4-9.7,8.4c0.2,5.5,4.9,6.8,9.6,7.6c-3.5,1.3-6.8,1.5-9.5-1.4c-2.9-3.1-3-7-1.4-10.6
		C887.9,568.2,892,567.5,896.8,568.9z"/>
	<path d="M1023.4,567.8c2,0.3,3.7,0.5,5.4,0.7c0,0.3,0,0.6,0,1c-1.7,0.2-3.4,0.4-5.1,0.7c-2.4,9.4-1.2,12.9,5,14.7
		c-5.4,2.1-7.5,0.8-7.5-4.9c0-5.5,0-11.1,0-16.6c0.4,0,0.8-0.1,1.2-0.1C1022.6,564.7,1023,566.2,1023.4,567.8z"/>
	<ellipse cx="1031.5" cy="577" rx="1" ry="12.5"/>
	<path class="st0" d="M843.1,534.8c0-8.6,0-16.9,0-25.7c5.2-0.2,9.7,0.8,12.9,5.2c3.5,4.8,3,10.2,0.7,15
		C854.1,534.6,849.1,535.9,843.1,534.8z"/>
	<path class="st0" d="M930.1,520.6c0-5.5,0-8.7,0-13.5c3.3,1.2,6.3,1.7,8.5,3.4c1,0.8,1.2,4.7,0.3,5.5
		C936.8,517.9,933.8,518.8,930.1,520.6z"/>
	<path class="st0" d="M1062.6,526.8c1.6-5.4,3.1-10.4,5-16.6c1.9,6.2,3.6,11.4,5.2,16.6C1069.3,526.8,1066.2,526.8,1062.6,526.8z"/>
	<path class="st0" d="M964.2,573.2c8.5-0.5,11.9,1.1,11.9,5.3c0,4.7-3.4,6.2-11.9,5.2C964.2,580.3,964.2,576.9,964.2,573.2z"/>
	<path class="st0" d="M962.7,571.1c1.5-3.5,2-6.9,4-8.4c1.4-1.1,4.9-0.1,7.1,0.8c0.7,0.3,1.2,3.4,0.5,4.7
		C972.1,572.6,968,570.8,962.7,571.1z"/>
	<path class="st0" d="M866.9,577.7c0-5.3,2.4-7.9,6.8-7.8c3.9,0.1,7.4,3.7,7.3,7.4c-0.1,3.8-3.4,6.9-7.6,6.8
		C868.7,584.1,866.9,582.3,866.9,577.7z"/>
	<path class="st0" d="M1052.1,578.1c0,4.1-2.2,6-7,6c-4.6,0-7.2-2.4-7.2-6.9c0-3.9,3.3-7.3,7.1-7.3
		C1049.7,569.9,1052.1,572.7,1052.1,578.1z"/>
	<path class="st0" d="M1078.6,581.4c-1-3.6-2-7.6,1.7-9.9c2.2-1.4,5.5-1,8.3-1.4c0.1,0.5,0.1,0.9,0.2,1.4
		C1085.4,574.8,1081.9,578.1,1078.6,581.4C1078.5,581.5,1078.6,581.4,1078.6,581.4z"/>
	<path class="st0" d="M937.1,578c0,4.4-2,6.2-6.9,6.1c-3.5-0.1-7.2-3.5-7.3-6.7c-0.1-3.9,3.6-7.6,7.7-7.5
		C935,570,937.1,572.6,937.1,578z"/>
	<path class="st0" d="M858.1,577.3c0,4.4-2.3,6.8-6.6,6.8c-4.5,0-6.7-2.4-6.6-7.3c0.1-4.4,2.5-6.9,6.6-6.9
		C855.8,569.9,858.1,572.5,858.1,577.3z"/>
	<path class="st0" d="M989.8,569.9c3.7,0,7.3,3.6,7.1,7.3c-0.1,3.5-3.5,6.9-7,6.9c-4.5,0-7-2.5-7-7
		C982.9,572.6,985.5,569.9,989.8,569.9z"/>
	<path class="st0" d="M908.9,584.1c-3.4,0-6.9-3.5-7-6.9c-0.1-3.6,3.6-7.3,7.2-7.3c4,0,7,3.3,6.9,7.3
		C916,581.5,913.3,584.1,908.9,584.1z"/>
</g>
</svg>
